<svg width="31" height="35" viewBox="0 0 31 35" fill="none" xmlns="http://www.w3.org/2000/svg">
<path d="M26.5714 2.1875H4.42857C1.98109 2.1875 0 4.14463 0 6.5625V28.4375C0 30.8561 1.9804 32.8125 4.42857 32.8125H26.5714C29.0196 32.8125 31 30.8561 31 28.4375V6.5625C31 4.14463 29.021 2.1875 26.5714 2.1875ZM26.5714 22.9688C26.5714 24.1767 25.5798 25.1562 24.3571 25.1562H6.64286C5.42016 25.1562 4.42857 24.1767 4.42857 22.9688V15.4424L14.0123 20.1776C14.4828 20.4053 14.9879 20.5215 15.5 20.5215C16.0121 20.5215 16.5206 20.4061 16.9856 20.1765L26.5714 15.4424V22.9688ZM26.5714 12.9951L15.9982 18.2191C15.6868 18.3729 15.3193 18.3729 15.008 18.2191L4.42857 12.9951V12.0312C4.42857 10.8233 5.42016 9.84375 6.64286 9.84375H24.3571C25.5798 9.84375 26.5714 10.8233 26.5714 12.0312V12.9951Z" fill="white" fill-opacity="0.81"></path>
</svg>
