<svg width="53" height="125" fill="none" xmlns="http://www.w3.org/2000/svg"><path d="m12.541 101.274 2.46 9.288 10.07-.23-8.552 4.885L20.278 125l-7.737-6.897L4.794 125l3.759-9.783L0 110.332l10.07.23 2.471-9.288ZM39.74 68.857l2.46 9.277 10.08-.219-8.552 4.886 3.76 9.77-7.749-6.897-7.747 6.898L35.75 82.8l-8.553-4.886 10.081.219 2.46-9.277ZM12.541 32.417l2.46 9.288 10.07-.23-8.552 4.886 3.759 9.782-7.737-6.897-7.747 6.897 3.759-9.782L0 41.475l10.07.23 2.471-9.288ZM39.74 0l2.46 9.277 10.08-.219-8.552 4.886 3.76 9.77-7.749-6.896-7.747 6.897 3.759-9.771-8.553-4.886 10.081.219L39.74 0Z" fill="#16839B" fill-opacity=".5"/></svg>