<svg width="270" height="51" fill="none" xmlns="http://www.w3.org/2000/svg"><g clip-path="url('#clip0_10_2008')"><path d="M26.49 39.347a23.37 23.37 0 0 1 8.06-5.535 23.541 23.541 0 0 1 9.64-1.769l-2.824-13.625s-9.121-.635-14.875 6.283v14.646ZM24.957 39.347a23.293 23.293 0 0 0-8.056-5.542 23.462 23.462 0 0 0-9.643-1.762l2.814-13.625s9.112-.635 14.866 6.283v14.646" fill="#1698B3"/><path d="M9.733 34.237v3.522a18.91 18.91 0 0 1 7.91-.263 18.844 18.844 0 0 1 7.314 2.996s-6.87-8.016-15.224-6.255ZM41.696 34.237v3.522a18.804 18.804 0 0 0-7.889-.24 18.921 18.921 0 0 0-7.297 2.973s6.821-8.016 15.186-6.255Z" fill="#E12B3A"/><path d="M25.714 47.796a22.58 22.58 0 0 1-14.247-5.063A22.244 22.244 0 0 1 3.69 29.857a22.113 22.113 0 0 1 2.226-14.845A22.398 22.398 0 0 1 17.134 4.936a22.64 22.64 0 0 1 15.116-.733 22.45 22.45 0 0 1 12.154 8.943 22.133 22.133 0 0 1 3.676 14.559 22.2 22.2 0 0 1-6.471 13.567 22.618 22.618 0 0 1-15.895 6.524Zm0-47.796A25.838 25.838 0 0 0 9.41 5.79a25.453 25.453 0 0 0-8.9 14.732A25.304 25.304 0 0 0 3.054 37.51a25.63 25.63 0 0 0 12.833 11.532 25.907 25.907 0 0 0 17.298.84 25.689 25.689 0 0 0 13.91-10.23 25.327 25.327 0 0 0 4.207-16.66A25.403 25.403 0 0 0 43.9 7.467 25.834 25.834 0 0 0 25.714 0Z" fill="#1698B3"/><path d="m25.714 7.4.97 3.089h3.27l-2.639 1.924.97 3.09-2.648-1.925-2.64 1.924.97-3.089-2.639-1.924h3.27l.97-3.09M15.584 11.432l.504 1.54h1.64l-1.32.962.505 1.54-1.33-.963-1.319.962.505-1.54-1.32-.962h1.63l.505-1.54ZM35.845 11.432l.504 1.54h1.63l-1.32.962.505 1.54-1.32-.963-1.319.962.505-1.54-1.32-.962h1.63l.505-1.54Z" fill="#1698B3"/><path d="M96.666 42.34v-6.236h2.426v.616H97.55v2.078h1.155v.616h-1.155v2.887l-.883.039Zm6.579.067a1.88 1.88 0 0 1-1.019-.25 1.377 1.377 0 0 1-.543-.703 3.283 3.283 0 0 1-.155-1.077v-2.358c-.01-.359.043-.717.155-1.058.102-.278.293-.514.543-.674.31-.175.663-.259 1.019-.24a1.8 1.8 0 0 1 .971.24c.25.157.439.395.533.674.125.339.184.697.175 1.058v2.367a2.99 2.99 0 0 1-.175 1.068 1.345 1.345 0 0 1-.533.703 1.8 1.8 0 0 1-.971.25Zm0-.683a.861.861 0 0 0 .534-.145.713.713 0 0 0 .233-.394 2.41 2.41 0 0 0 .068-.616v-2.733a2.113 2.113 0 0 0-.068-.587.625.625 0 0 0-.233-.385 1.056 1.056 0 0 0-1.067 0 .634.634 0 0 0-.243.385c-.042.193-.062.39-.058.587v2.733c-.002.207.017.413.058.616.035.154.12.293.243.394a.857.857 0 0 0 .533.174v-.03Zm4.522.616v-6.236h1.262a2.7 2.7 0 0 1 1.038.164c.263.094.482.283.611.529.149.299.219.63.204.962.001.22-.025.44-.078.655a1.283 1.283 0 0 1-.252.5c-.12.137-.274.24-.446.298l.892 3.128h-.854l-.815-2.887h-.689v2.887h-.873Zm.873-3.551h.34c.205.008.41-.025.602-.096a.584.584 0 0 0 .339-.318c.083-.194.12-.405.107-.616a1.291 1.291 0 0 0-.194-.789 1.016 1.016 0 0 0-.805-.25h-.389v2.069Zm10.286 3.618a1.65 1.65 0 0 1-.902-.231 1.373 1.373 0 0 1-.544-.645 2.56 2.56 0 0 1-.223-.962l.776-.212c.016.218.052.434.107.645.049.189.142.364.272.51a.673.673 0 0 0 .514.193.66.66 0 0 0 .514-.193.776.776 0 0 0 .185-.539 1.06 1.06 0 0 0-.204-.683 3.424 3.424 0 0 0-.485-.52l-1.058-.962a1.824 1.824 0 0 1-.456-.587 1.906 1.906 0 0 1-.145-.789 1.41 1.41 0 0 1 .397-1.068 1.49 1.49 0 0 1 1.077-.375c.221-.006.441.026.651.096.181.059.344.161.475.298.138.146.241.32.301.51.083.227.135.463.155.703l-.747.202a3.097 3.097 0 0 0-.087-.558.843.843 0 0 0-.253-.424.711.711 0 0 0-.495-.154.722.722 0 0 0-.514.174.687.687 0 0 0-.174.51c-.006.161.024.322.087.471.088.14.196.266.32.375l1.067.962c.245.214.454.464.621.741.181.29.276.623.272.963.01.282-.057.56-.194.808a1.216 1.216 0 0 1-.534.5c-.232.148-.5.232-.776.241Zm5.706 0a1.706 1.706 0 0 1-1.038-.28 1.442 1.442 0 0 1-.515-.75 3.84 3.84 0 0 1-.136-1.039v-2.203a4.215 4.215 0 0 1 .136-1.107c.086-.29.267-.544.515-.722.31-.19.673-.282 1.038-.26a1.71 1.71 0 0 1 .97.212c.23.145.404.361.495.616.112.308.165.635.155.962v.5h-.825v-.432a5.11 5.11 0 0 0 0-.607.596.596 0 0 0-.226-.44.615.615 0 0 0-.482-.127.78.78 0 0 0-.543.163.717.717 0 0 0-.223.453c-.022.22-.022.443 0 .663v2.473c-.005.253.021.505.077.751.035.154.125.29.252.385a.881.881 0 0 0 .486.115.762.762 0 0 0 .514-.154.898.898 0 0 0 .194-.442c.011-.215.011-.43 0-.645v-.462h.825v.462a3.6 3.6 0 0 1-.136.962c-.085.27-.255.506-.485.674-.306.211-.677.31-1.048.279Zm4.357-.067v-6.236h.883v2.694h1.61v-2.694h.884v6.236h-.884v-2.887h-1.61v2.887h-.883Zm7.898.067a1.838 1.838 0 0 1-.97-.25 1.279 1.279 0 0 1-.543-.703 3.016 3.016 0 0 1-.165-1.077v-2.358c-.012-.36.043-.719.165-1.058a1.26 1.26 0 0 1 .543-.674c.295-.168.631-.252.97-.24a1.8 1.8 0 0 1 .971.24c.25.16.441.396.543.674.116.34.172.698.165 1.058v2.367c.005.363-.051.724-.165 1.068a1.419 1.419 0 0 1-.543.703 1.8 1.8 0 0 1-.971.25Zm0-.683a.861.861 0 0 0 .534-.145.791.791 0 0 0 .243-.394c.04-.203.06-.41.058-.616v-2.733a2.574 2.574 0 0 0-.058-.587.686.686 0 0 0-.243-.385 1.056 1.056 0 0 0-1.067 0 .68.68 0 0 0-.243.385c-.042.193-.061.39-.058.587v2.733c-.002.207.017.413.058.616.039.152.124.29.243.394a.857.857 0 0 0 .533.174v-.03Zm6.133.683a1.853 1.853 0 0 1-.97-.25 1.33 1.33 0 0 1-.544-.703 3.288 3.288 0 0 1-.165-1.077v-2.358c-.006-.36.049-.718.165-1.058a1.31 1.31 0 0 1 .544-.674 2.254 2.254 0 0 1 2.028 0c.248.16.435.397.533.674.121.34.177.698.165 1.058v2.367c.01.363-.046.725-.165 1.068a1.403 1.403 0 0 1-.533.703 1.838 1.838 0 0 1-1.058.25Zm0-.683a.812.812 0 0 0 .524-.145.728.728 0 0 0 .243-.394c.04-.203.06-.41.058-.616v-2.733a2.574 2.574 0 0 0-.058-.587.638.638 0 0 0-.243-.385.812.812 0 0 0-.524-.144.84.84 0 0 0-.534.144.592.592 0 0 0-.242.385 2.04 2.04 0 0 0-.068.587v2.733c-.004.207.018.414.068.616a.67.67 0 0 0 .242.394.84.84 0 0 0 .534.174v-.03Zm4.512.616v-6.236h.883v5.649h1.601v.625l-2.484-.038Zm8.733 0v-6.236h1.446c.249-.004.497.025.738.087.195.052.375.151.524.288.146.133.254.303.31.491.075.224.111.458.107.693.003.229-.033.457-.107.674a.869.869 0 0 1-.291.433.972.972 0 0 1-.505.211c.225.045.435.144.612.289.162.14.279.324.339.53.084.244.124.501.117.76.002.246-.027.492-.088.73a1.477 1.477 0 0 1-.3.559 1.242 1.242 0 0 1-.505.366 1.954 1.954 0 0 1-.718.125h-1.679Zm.883-.626h.582a.98.98 0 0 0 .786-.27c.158-.267.229-.576.204-.885a1.802 1.802 0 0 0-.107-.654.74.74 0 0 0-.339-.404 1.202 1.202 0 0 0-.611-.135h-.515v2.348Zm0-3.012h.515c.198.012.397-.021.582-.096a.669.669 0 0 0 .301-.346c.056-.194.082-.395.077-.597a1.17 1.17 0 0 0-.126-.625.618.618 0 0 0-.417-.241 4.807 4.807 0 0 0-.728 0h-.204v1.905Zm6.734 3.705a1.874 1.874 0 0 1-1.018-.25 1.374 1.374 0 0 1-.544-.703 3.283 3.283 0 0 1-.155-1.077v-2.358c-.01-.359.043-.717.155-1.058.103-.278.293-.514.544-.674a1.873 1.873 0 0 1 1.018-.24 1.8 1.8 0 0 1 .971.24c.25.157.439.395.534.674.124.339.183.697.174 1.058v2.367c.007.364-.052.726-.174 1.068a1.352 1.352 0 0 1-.534.703c-.29.172-.623.258-.961.25h-.01Zm0-.683a.86.86 0 0 0 .534-.145.713.713 0 0 0 .233-.394 2.41 2.41 0 0 0 .068-.616v-2.733a2.076 2.076 0 0 0-.068-.587.625.625 0 0 0-.233-.385 1.054 1.054 0 0 0-1.067 0 .68.68 0 0 0-.243.385c-.042.193-.061.39-.058.587v2.733c-.002.207.017.413.058.616.04.152.124.29.243.394a.857.857 0 0 0 .543.174l-.01-.03Zm4.183.616 1.329-6.236h.854l1.339 6.236h-.834l-.243-1.55h-1.281l-.31 1.578-.854-.028Zm1.242-2.194h1.048l-.534-2.81-.514 2.81Zm4.851 2.194v-6.236h1.262c.354-.014.706.042 1.038.164.261.1.477.287.612.529.14.301.206.63.194.962a2.33 2.33 0 0 1-.078.655 1.153 1.153 0 0 1-.243.5.97.97 0 0 1-.456.298l.893 3.128h-.844l-.825-2.887h-.679v2.887h-.874Zm.874-3.551h.33c.208.009.416-.024.611-.096a.575.575 0 0 0 .34-.318c.078-.196.114-.405.106-.616a1.22 1.22 0 0 0-.203-.789.976.976 0 0 0-.796-.25h-.388v2.069Zm5.094 3.55v-6.235h1.359c.38-.019.76.054 1.106.212.268.131.476.358.582.635.127.335.186.691.175 1.049v2.3c.009.379-.051.757-.175 1.116-.105.286-.303.53-.563.693-.325.169-.69.249-1.057.23h-1.427Zm.873-.625h.495a.978.978 0 0 0 .68-.183.804.804 0 0 0 .242-.539c.033-.284.05-.57.049-.856v-2.03a4.24 4.24 0 0 0-.059-.78.71.71 0 0 0-.271-.442 1.299 1.299 0 0 0-.66-.135h-.476v4.965Zm8.869.626v-6.236h1.369c.38-.019.76.054 1.106.212.268.131.476.358.582.635.127.335.186.691.175 1.049v2.3c.009.379-.051.757-.175 1.116a1.4 1.4 0 0 1-.572.693 2.066 2.066 0 0 1-1.048.23h-1.437Zm.883-.626h.495c.241.02.482-.045.68-.183a.856.856 0 0 0 .242-.539 7.197 7.197 0 0 0 0-.856v-2.03a3.457 3.457 0 0 0-.068-.78.638.638 0 0 0-.271-.442 1.272 1.272 0 0 0-.66-.135h-.466l.048 4.965Zm5.202.626v-6.236h.863v6.236h-.863Zm5.298.067a1.653 1.653 0 0 1-.903-.231 1.366 1.366 0 0 1-.543-.645 2.522 2.522 0 0 1-.223-.962l.776-.212c.016.218.052.434.107.645.044.19.138.366.271.51a.668.668 0 0 0 .515.193.665.665 0 0 0 .514-.193.766.766 0 0 0 .175-.539 1.068 1.068 0 0 0-.194-.683 3.381 3.381 0 0 0-.486-.52l-1.057-.962a1.81 1.81 0 0 1-.456-.587 1.907 1.907 0 0 1-.146-.789 1.381 1.381 0 0 1 .082-.577c.069-.184.177-.351.316-.491a1.49 1.49 0 0 1 1.077-.375c.221-.005.441.027.65.096.181.059.345.161.476.298.137.146.24.32.3.51.083.227.136.463.156.703l-.747.202a3.099 3.099 0 0 0-.088-.558.848.848 0 0 0-.252-.424.713.713 0 0 0-.495-.154.72.72 0 0 0-.514.174.672.672 0 0 0-.175.51c-.006.161.024.322.087.471.089.14.196.266.321.375l1.067.962c.245.216.457.466.631.741.174.292.268.624.271.963.007.282-.064.562-.203.808a1.221 1.221 0 0 1-.534.5 1.544 1.544 0 0 1-.757.241h-.019Zm4.851-.067v-5.591h-1.067v-.645h2.979v.645h-1.038v5.59h-.874Zm4.454 0v-6.236h1.272a2.73 2.73 0 0 1 1.038.164c.259.097.473.285.601.529.149.299.219.63.204.962.001.22-.025.44-.077.655a1.299 1.299 0 0 1-.253.5c-.12.137-.273.24-.446.298l.893 3.128h-.845l-.824-2.887h-.689v2.887h-.874Zm.874-3.551h.339c.205.008.41-.025.602-.096a.626.626 0 0 0 .349-.318c.079-.196.115-.405.107-.616a1.227 1.227 0 0 0-.204-.789.965.965 0 0 0-.795-.25h-.398v2.069Zm5.143 3.55v-6.235h.863v6.236h-.863Zm5.395.068a1.756 1.756 0 0 1-1.048-.28 1.424 1.424 0 0 1-.505-.75 3.45 3.45 0 0 1-.145-1.039v-2.203a3.833 3.833 0 0 1 .145-1.107c.082-.29.26-.544.505-.722.315-.19.68-.28 1.048-.26.337-.024.674.05.97.212.23.145.404.361.495.616.112.308.165.635.155.962v.5h-.834v-.432a3.835 3.835 0 0 0 0-.607.618.618 0 0 0-.185-.413.689.689 0 0 0-.524-.154.79.79 0 0 0-.543.163.832.832 0 0 0-.223.453 4.328 4.328 0 0 0 0 .663v2.473c-.005.253.021.505.077.751a.73.73 0 0 0 .262.385.87.87 0 0 0 .476.115.722.722 0 0 0 .514-.154.749.749 0 0 0 .194-.442c.016-.215.016-.43 0-.645v-.462h.835v.462a3.6 3.6 0 0 1-.136.962 1.388 1.388 0 0 1-.485.674 1.653 1.653 0 0 1-1.077.279h.029Zm5.045-.067v-5.591h-1.057v-.645h2.969v.645h-1.029v5.59h-.883Zm9.704.067a1.435 1.435 0 0 1-.883-.27 1.716 1.716 0 0 1-.505-.74 3.554 3.554 0 0 1-.155-1.04V38.26a4.01 4.01 0 0 1 .146-1.117c.077-.306.242-.584.475-.798.258-.212.588-.319.922-.299.285-.01.568.05.825.174.224.116.407.297.524.52.131.255.197.54.194.827h-.844a1.365 1.365 0 0 0-.146-.693.608.608 0 0 0-.563-.24.556.556 0 0 0-.388.153.842.842 0 0 0-.242.424 3.24 3.24 0 0 0-.078.76v.962a.844.844 0 0 1 .349-.308 1.24 1.24 0 0 1 .563-.125c.29-.018.578.064.815.231.208.156.358.376.427.626.084.313.123.637.117.962a3.1 3.1 0 0 1-.156 1.02c-.084.291-.257.55-.495.74a1.462 1.462 0 0 1-.941.328h.039Zm0-.683a.598.598 0 0 0 .437-.154.957.957 0 0 0 .223-.424c.043-.19.066-.383.068-.577a5.192 5.192 0 0 0 0-.683.862.862 0 0 0-.185-.5.597.597 0 0 0-.504-.193.624.624 0 0 0-.301.067.706.706 0 0 0-.243.154.98.98 0 0 0-.165.202v.963c-.001.197.019.393.059.587.041.16.121.309.233.433a.583.583 0 0 0 .339.154l.039-.03Z" fill="#fff"/><path d="M243.073 39.934h26.684m-205.714 0h26.685-26.685Z" stroke="#E12B3A"/><path d="M80.704 9.71h-2.183l-4.309 13.327-4.308-13.328H63.8v19.159h4.658v-4.475l-.456-9.16 4.668 13.635h3.085l4.668-13.635-.456 9.16v4.475h4.677V9.709H80.704ZM92.562 9.71h-2.999v19.158h13.294v-3.55h-8.636v-4.572h7.316v-3.425h-7.316v-4.042h8.675V9.71H92.561ZM119.654 20.073a4.93 4.93 0 0 0 1.455-1.829 6.537 6.537 0 0 0 .515-2.742 5.391 5.391 0 0 0-.903-3.185 5.419 5.419 0 0 0-2.532-1.925 10.517 10.517 0 0 0-3.882-.654H106.7v19.159h4.657V22.16h2.504l3.416 6.736h4.987v-.202l-4.037-7.747a7.86 7.86 0 0 0 1.427-.875Zm-8.287-6.803h2.911a3.03 3.03 0 0 1 1.446.317c.392.223.707.559.902.962a3.468 3.468 0 0 1 0 2.83 2.13 2.13 0 0 1-.883.894 3.144 3.144 0 0 1-1.465.308h-2.911V13.27ZM131.327 9.71h-4.648v19.158h4.648V9.709ZM140.924 16.147a5.17 5.17 0 0 1 .631-1.78 2.637 2.637 0 0 1 1.067-.963c.466-.221.978-.33 1.494-.317a4.418 4.418 0 0 1 1.941.375c.504.203.917.579 1.165 1.059.247.57.373 1.187.368 1.809h4.648a7.906 7.906 0 0 0-1.135-3.541 6.58 6.58 0 0 0-2.688-2.464 9.254 9.254 0 0 0-4.26-.895 8.446 8.446 0 0 0-3.328.645 7.178 7.178 0 0 0-2.61 1.847 8.51 8.51 0 0 0-1.65 2.955 12.348 12.348 0 0 0-.572 3.849v1.087c-.014 1.303.169 2.6.543 3.85a8.423 8.423 0 0 0 1.611 2.886 7.073 7.073 0 0 0 2.571 1.857 8.797 8.797 0 0 0 3.464.645 9.344 9.344 0 0 0 4.134-.847 6.665 6.665 0 0 0 2.766-2.377 6.927 6.927 0 0 0 1.086-3.522h-4.648a3.812 3.812 0 0 1-.417 1.77c-.26.454-.657.814-1.135 1.03a4.285 4.285 0 0 1-1.786.328 3.731 3.731 0 0 1-1.62-.318 2.596 2.596 0 0 1-1.058-1.01 4.995 4.995 0 0 1-.601-1.761 15.384 15.384 0 0 1-.185-2.608v-.991c-.012-.87.057-1.74.204-2.598ZM166.755 9.71l-4.163 6.013-1.621 2.435V9.709h-4.657v19.159h4.657v-5.052l1.902-2.069 4.115 7.12h5.511l-6.521-10.69 6.521-8.468h-5.744ZM188.995 9.71h-4.658v19.158h12.761v-3.55h-8.103V9.708ZM204.006 9.71h-2.998v19.158h13.294v-3.55h-8.646v-4.572h7.317v-3.425h-7.317v-4.042h8.685V9.71h-10.335ZM233.107 21.728 230.41 9.709H226.451l-2.649 11.99-2.222-11.99h-4.61l4.095 19.159h4.833l2.532-10.922 2.591 10.922h4.813l4.095-19.159h-4.6l-2.222 12.019ZM248.662 9.71h-4.648v19.158h4.648V9.709ZM265.362 9.71v11.922L258.53 9.709h-4.657v19.159h4.657V16.946l6.832 11.922H270V9.709h-4.638Z" fill="#fff"/></g><defs><clipPath id="clip0_10_2008"><path fill="#fff" d="M0 0h270v51H0z"/></clipPath></defs></svg>