<svg width="270" height="51" viewBox="0 0 270 51" fill="none" xmlns="http://www.w3.org/2000/svg">
<g clip-path="url('#clip0_10_2008')">
<path d="M26.4906 39.347C28.7522 36.9577 31.4991 35.0713 34.5501 33.8123C37.601 32.5534 40.8866 31.9505 44.1898 32.0434L41.366 18.4177C41.366 18.4177 32.2447 17.7827 26.4906 24.7013V39.347Z" fill="#1698B3"></path>
<path d="M24.9574 39.347C22.6989 36.9538 19.9525 35.0647 16.9008 33.8054C13.8491 32.5462 10.5621 31.9455 7.25822 32.0434L10.0722 18.4177C10.0722 18.4177 19.1838 17.7827 24.938 24.7013V39.347" fill="#1698B3"></path>
<path d="M9.73262 34.2374V37.7592C12.3204 37.1147 15.017 37.0251 17.6424 37.4964C20.2678 37.9677 22.7617 38.989 24.9574 40.4921C24.9574 40.4921 18.0873 32.4764 9.73262 34.2374Z" fill="#E12B3A"></path>
<path d="M41.696 34.2374V37.7592C39.1137 37.1219 36.4239 37.0398 33.807 37.5187C31.1903 37.9879 28.7034 39.0012 26.51 40.4921C26.51 40.4921 33.3315 32.4764 41.696 34.2374Z" fill="#E12B3A"></path>
<path d="M25.7143 47.7957C20.5176 47.7932 15.4826 46.0042 11.4669 42.7332C7.45121 39.4623 4.70332 34.9119 3.69135 29.8573C2.67938 24.8026 3.46594 19.5563 5.91702 15.0122C8.36811 10.4681 12.3321 6.90729 17.1337 4.93638C21.9352 2.96548 27.2774 2.70641 32.25 4.20331C37.2225 5.70021 41.518 8.86048 44.4045 13.1457C47.291 17.431 48.59 22.5761 48.0802 27.7046C47.5704 32.8331 45.2833 37.6277 41.6086 41.2715C37.3897 45.4461 31.6742 47.7921 25.7143 47.7957ZM25.7143 0C19.7678 0.00166552 14.0058 2.04783 9.40999 5.78991C4.81418 9.53198 1.66886 14.7385 0.509892 20.5223C-0.649077 26.3062 0.250004 32.3096 3.05396 37.5099C5.85792 42.7101 10.3933 46.7854 15.8874 49.0415C21.3815 51.2975 27.4944 51.5948 33.1848 49.8827C38.8751 48.1705 43.7908 44.5548 47.0944 39.6516C50.398 34.7484 51.8851 28.861 51.3024 22.9925C50.7197 17.1239 48.1032 11.6372 43.8987 7.46717C39.075 2.68609 32.5343 0.000204201 25.7143 0Z" fill="#1698B3"></path>
<path d="M25.7143 7.39981L26.6846 10.4887H29.9547L27.3154 12.4132L28.2857 15.5021L25.6367 13.5775L22.9973 15.5021L23.9677 12.4132L21.3283 10.4887H24.5984L25.5687 7.39981" fill="#1698B3"></path>
<path d="M15.5838 11.4317L16.0884 12.9713H17.7283L16.4086 13.9336L16.9132 15.4732L15.5838 14.511L14.2641 15.4732L14.7687 13.9336L13.4491 12.9713H15.0792L15.5838 11.4317Z" fill="#1698B3"></path>
<path d="M35.8447 11.4317L36.3493 12.9713H37.9795L36.6598 13.9336L37.1644 15.4732L35.8447 14.511L34.5251 15.4732L35.0297 13.9336L33.71 12.9713H35.3402L35.8447 11.4317Z" fill="#1698B3"></path>
<path d="M96.6663 42.3396V36.1041H99.0922V36.72H97.5493V38.7985H98.704V39.4143H97.5493V42.3011L96.6663 42.3396ZM103.245 42.407C102.889 42.4221 102.535 42.3353 102.226 42.1568C101.972 41.9884 101.781 41.7414 101.683 41.4543C101.572 41.106 101.519 40.7419 101.528 40.3766V38.019C101.518 37.66 101.571 37.302 101.683 36.9606C101.785 36.6834 101.976 36.4469 102.226 36.287C102.536 36.1118 102.889 36.0283 103.245 36.0464C103.585 36.0333 103.922 36.1167 104.216 36.287C104.466 36.444 104.655 36.6819 104.749 36.9606C104.874 37.2995 104.933 37.6585 104.924 38.019V40.3862C104.931 40.7498 104.872 41.1116 104.749 41.4543C104.656 41.7411 104.468 41.9884 104.216 42.1568C103.923 42.3304 103.586 42.4172 103.245 42.407ZM103.245 41.7238C103.434 41.7357 103.622 41.6849 103.779 41.5794C103.898 41.4769 103.98 41.3382 104.012 41.1849C104.061 40.9834 104.084 40.7764 104.08 40.569V37.8362C104.085 37.6384 104.062 37.4407 104.012 37.2492C103.985 37.0968 103.902 36.9596 103.779 36.8643C103.617 36.7695 103.433 36.7195 103.245 36.7195C103.058 36.7195 102.873 36.7695 102.712 36.8643C102.586 36.9586 102.499 37.0957 102.469 37.2492C102.427 37.442 102.407 37.639 102.411 37.8362V40.569C102.409 40.7758 102.428 40.9822 102.469 41.1849C102.504 41.3392 102.589 41.4778 102.712 41.5794C102.865 41.6952 103.053 41.7562 103.245 41.7526V41.7238ZM107.767 42.3396V36.1041H109.029C109.382 36.0901 109.735 36.1457 110.067 36.2677C110.33 36.3618 110.549 36.5507 110.678 36.797C110.827 37.0957 110.897 37.4266 110.882 37.7592C110.883 37.9797 110.857 38.1994 110.804 38.4136C110.758 38.5967 110.672 38.7675 110.552 38.914C110.432 39.0506 110.278 39.1535 110.106 39.2123L110.998 42.3396H110.144L109.329 39.4528H108.64V42.3396H107.767ZM108.64 38.7889H108.98C109.185 38.797 109.39 38.7643 109.582 38.6926C109.657 38.6658 109.727 38.6237 109.785 38.5691C109.843 38.5144 109.89 38.4484 109.921 38.3751C110.004 38.1807 110.041 37.9699 110.028 37.7592C110.05 37.4824 109.982 37.2059 109.834 36.9702C109.726 36.8738 109.598 36.8017 109.459 36.7585C109.32 36.7153 109.173 36.7022 109.029 36.72H108.64V38.7889ZM118.926 42.407C118.609 42.4182 118.296 42.3379 118.024 42.176C117.779 42.0231 117.589 41.7975 117.48 41.5313C117.344 41.228 117.268 40.9011 117.257 40.569L118.033 40.3573C118.049 40.575 118.085 40.7908 118.14 41.0021C118.189 41.191 118.282 41.3658 118.412 41.5121C118.479 41.5784 118.56 41.6299 118.648 41.663C118.737 41.6962 118.832 41.7104 118.926 41.7045C119.021 41.711 119.116 41.6971 119.204 41.6639C119.293 41.6307 119.374 41.5789 119.44 41.5121C119.568 41.3619 119.634 41.1694 119.625 40.9732C119.638 40.729 119.566 40.4879 119.421 40.29C119.278 40.1004 119.115 39.9263 118.936 39.7704L117.878 38.8081C117.687 38.6456 117.532 38.4457 117.422 38.2211C117.318 37.9712 117.269 37.7023 117.277 37.4321C117.265 37.2364 117.294 37.0404 117.362 36.8566C117.431 36.6727 117.537 36.5049 117.674 36.364C117.82 36.234 117.99 36.1339 118.175 36.0695C118.36 36.0051 118.556 35.9776 118.751 35.9887C118.972 35.9825 119.192 36.0151 119.402 36.0849C119.583 36.1436 119.746 36.2461 119.877 36.3832C120.015 36.5286 120.118 36.7029 120.178 36.8932C120.261 37.1195 120.313 37.3557 120.333 37.5956L119.586 37.7977C119.574 37.6094 119.545 37.4226 119.499 37.2396C119.459 37.0768 119.371 36.9295 119.246 36.8162C119.107 36.7047 118.93 36.6497 118.751 36.6623C118.564 36.651 118.379 36.7132 118.237 36.8355C118.175 36.9043 118.127 36.985 118.097 37.0727C118.067 37.1603 118.055 37.2531 118.063 37.3455C118.057 37.507 118.087 37.6679 118.15 37.817C118.238 37.9565 118.346 38.0829 118.47 38.1923L119.537 39.1545C119.782 39.3681 119.991 39.6181 120.158 39.8955C120.339 40.1841 120.434 40.5179 120.43 40.8577C120.44 41.1396 120.373 41.4188 120.236 41.666C120.114 41.8831 119.928 42.0578 119.702 42.1664C119.47 42.3144 119.202 42.3975 118.926 42.407ZM124.632 42.407C124.264 42.428 123.9 42.3301 123.594 42.1279C123.345 41.9391 123.165 41.6759 123.079 41.3773C122.986 41.0387 122.941 40.689 122.943 40.3381V38.1345C122.939 37.7613 122.985 37.3891 123.079 37.0279C123.165 36.7375 123.346 36.4836 123.594 36.3062C123.904 36.1151 124.267 36.0244 124.632 36.0464C124.969 36.0195 125.307 36.0932 125.602 36.2581C125.832 36.4025 126.006 36.6194 126.097 36.874C126.209 37.1822 126.262 37.5087 126.252 37.8362V38.3366H125.427V37.9036C125.439 37.7017 125.439 37.4993 125.427 37.2973C125.423 37.2122 125.401 37.129 125.362 37.053C125.323 36.9771 125.268 36.9101 125.201 36.8565C125.134 36.803 125.057 36.764 124.974 36.7421C124.891 36.7202 124.804 36.716 124.719 36.7296C124.524 36.7141 124.33 36.7726 124.176 36.8932C124.049 37.0125 123.97 37.173 123.953 37.3455C123.931 37.5663 123.931 37.7886 123.953 38.0094V40.4824C123.948 40.7348 123.974 40.9869 124.03 41.233C124.065 41.387 124.155 41.5234 124.282 41.6179C124.429 41.7024 124.598 41.7425 124.768 41.7334C124.952 41.7462 125.135 41.6914 125.282 41.5794C125.386 41.4523 125.453 41.2992 125.476 41.1368C125.487 40.922 125.487 40.7068 125.476 40.4921V40.0302H126.301V40.4921C126.299 40.8174 126.254 41.1411 126.165 41.4543C126.08 41.7244 125.91 41.9604 125.68 42.1279C125.374 42.3391 125.003 42.4378 124.632 42.407ZM128.989 42.3396V36.1041H129.872V38.7985H131.482V36.1041H132.366V42.3396H131.482V39.4528H129.872V42.3396H128.989ZM136.887 42.407C136.547 42.4151 136.211 42.3284 135.917 42.1568C135.657 41.9942 135.465 41.7451 135.374 41.4543C135.254 41.1078 135.198 40.7427 135.209 40.3766V38.019C135.197 37.6591 135.252 37.3001 135.374 36.9606C135.469 36.6796 135.662 36.4411 135.917 36.287C136.212 36.1187 136.548 36.0354 136.887 36.0464C137.227 36.0333 137.564 36.1167 137.858 36.287C138.108 36.4464 138.299 36.683 138.401 36.9606C138.517 37.3014 138.573 37.6594 138.566 38.019V40.3862C138.571 40.7488 138.515 41.1098 138.401 41.4543C138.3 41.7401 138.11 41.9863 137.858 42.1568C137.565 42.3304 137.228 42.4172 136.887 42.407ZM136.887 41.7238C137.076 41.7357 137.264 41.6849 137.421 41.5794C137.54 41.4749 137.624 41.3375 137.664 41.1849C137.704 40.9822 137.724 40.7758 137.722 40.569V37.8362C137.725 37.639 137.706 37.442 137.664 37.2492C137.629 37.0973 137.544 36.9615 137.421 36.8643C137.259 36.7695 137.075 36.7195 136.887 36.7195C136.7 36.7195 136.515 36.7695 136.354 36.8643C136.231 36.9615 136.145 37.0973 136.111 37.2492C136.069 37.442 136.05 37.639 136.053 37.8362V40.569C136.051 40.7758 136.07 40.9822 136.111 41.1849C136.15 41.3375 136.235 41.4749 136.354 41.5794C136.507 41.6952 136.695 41.7562 136.887 41.7526V41.7238ZM143.02 42.407C142.679 42.4141 142.344 42.3275 142.05 42.1568C141.793 41.9912 141.601 41.7432 141.506 41.4543C141.391 41.1066 141.336 40.7424 141.341 40.3766V38.019C141.335 37.6594 141.39 37.3014 141.506 36.9606C141.605 36.6816 141.797 36.4441 142.05 36.287C142.364 36.1289 142.711 36.0465 143.064 36.0465C143.416 36.0465 143.763 36.1289 144.078 36.287C144.326 36.4469 144.513 36.6837 144.611 36.9606C144.732 37.3001 144.788 37.6591 144.776 38.019V40.3862C144.786 40.7492 144.73 41.1109 144.611 41.4543C144.514 41.7391 144.327 41.9853 144.078 42.1568C143.759 42.3449 143.39 42.4321 143.02 42.407ZM143.02 41.7238C143.206 41.7374 143.391 41.6863 143.544 41.5794C143.666 41.4778 143.751 41.3392 143.787 41.1849C143.827 40.9822 143.847 40.7758 143.845 40.569V37.8362C143.848 37.639 143.829 37.442 143.787 37.2492C143.756 37.0957 143.67 36.9586 143.544 36.8643C143.391 36.7574 143.206 36.7064 143.02 36.72C142.831 36.7065 142.642 36.7574 142.486 36.8643C142.357 36.9559 142.27 37.0942 142.244 37.2492C142.193 37.4407 142.17 37.6384 142.176 37.8362V40.569C142.172 40.7764 142.194 40.9834 142.244 41.1849C142.275 41.3407 142.361 41.4804 142.486 41.5794C142.639 41.6966 142.827 41.7578 143.02 41.7526V41.7238ZM147.532 42.3396V36.1041H148.415V41.7526H150.016V42.3781L147.532 42.3396ZM156.265 42.3396V36.1041H157.711C157.96 36.0998 158.208 36.1289 158.449 36.1907C158.644 36.2435 158.824 36.3425 158.973 36.4794C159.119 36.6118 159.227 36.7816 159.283 36.9702C159.358 37.1935 159.394 37.4278 159.39 37.663C159.393 37.8919 159.357 38.1197 159.283 38.3366C159.233 38.5071 159.131 38.6583 158.992 38.7696C158.848 38.8868 158.673 38.9603 158.487 38.9813C158.712 39.026 158.922 39.1252 159.099 39.27C159.261 39.4106 159.378 39.5943 159.438 39.7992C159.522 40.0438 159.562 40.3012 159.555 40.5594C159.557 40.8059 159.528 41.0517 159.467 41.2907C159.409 41.4961 159.306 41.6865 159.167 41.8489C159.033 42.0114 158.859 42.1373 158.662 42.2145C158.433 42.3008 158.189 42.3433 157.944 42.3396H156.265ZM157.148 41.7141H157.73C157.873 41.7298 158.018 41.7138 158.154 41.6672C158.29 41.6206 158.414 41.5446 158.516 41.4447C158.674 41.1771 158.745 40.8682 158.72 40.5594C158.725 40.3367 158.689 40.1149 158.613 39.9051C158.554 39.7337 158.433 39.5899 158.274 39.5009C158.086 39.4029 157.875 39.3564 157.663 39.3662H157.148V41.7141ZM157.148 38.7023H157.663C157.861 38.7135 158.06 38.6806 158.245 38.606C158.383 38.5295 158.49 38.4068 158.546 38.2596C158.602 38.0658 158.628 37.8646 158.623 37.663C158.64 37.447 158.596 37.2305 158.497 37.0375C158.447 36.9719 158.385 36.9167 158.313 36.8754C158.241 36.8341 158.162 36.8074 158.08 36.797C157.838 36.7786 157.594 36.7786 157.352 36.797H157.148V38.7023ZM163.882 42.407C163.526 42.4221 163.172 42.3353 162.864 42.1568C162.609 41.9884 162.418 41.7414 162.32 41.4543C162.209 41.106 162.156 40.7419 162.165 40.3766V38.019C162.155 37.66 162.208 37.302 162.32 36.9606C162.423 36.6834 162.613 36.4469 162.864 36.287C163.173 36.1118 163.527 36.0283 163.882 36.0464C164.222 36.0333 164.559 36.1167 164.853 36.287C165.103 36.444 165.292 36.6819 165.387 36.9606C165.511 37.2995 165.57 37.6585 165.561 38.019V40.3862C165.568 40.7498 165.509 41.1116 165.387 41.4543C165.293 41.7411 165.105 41.9884 164.853 42.1568C164.563 42.3286 164.23 42.4154 163.892 42.407H163.882ZM163.882 41.7238C164.072 41.7357 164.259 41.6849 164.416 41.5794C164.535 41.4769 164.617 41.3382 164.649 41.1849C164.698 40.9834 164.721 40.7764 164.717 40.569V37.8362C164.722 37.6384 164.7 37.4407 164.649 37.2492C164.622 37.0968 164.539 36.9596 164.416 36.8643C164.255 36.7695 164.07 36.7195 163.882 36.7195C163.695 36.7195 163.51 36.7695 163.349 36.8643C163.226 36.9615 163.14 37.0973 163.106 37.2492C163.064 37.442 163.045 37.639 163.048 37.8362V40.569C163.046 40.7758 163.065 40.9822 163.106 41.1849C163.146 41.3375 163.23 41.4749 163.349 41.5794C163.505 41.6973 163.696 41.7584 163.892 41.7526L163.882 41.7238ZM168.065 42.3396L169.394 36.1041H170.248L171.587 42.3396H170.753L170.51 40.7904H169.229L168.919 42.3685L168.065 42.3396ZM169.307 40.1457H170.355L169.821 37.3358L169.307 40.1457ZM174.158 42.3396V36.1041H175.42C175.774 36.0901 176.126 36.1457 176.458 36.2677C176.719 36.3672 176.935 36.5546 177.07 36.797C177.21 37.0981 177.276 37.4278 177.264 37.7592C177.269 37.9799 177.243 38.2003 177.186 38.4136C177.147 38.5974 177.064 38.7692 176.943 38.914C176.823 39.0547 176.665 39.1582 176.487 39.2123L177.38 42.3396H176.536L175.711 39.4528H175.032V42.3396H174.158ZM175.032 38.7889H175.362C175.57 38.7978 175.778 38.7651 175.973 38.6926C176.049 38.6658 176.118 38.6237 176.176 38.5691C176.235 38.5144 176.281 38.4484 176.313 38.3751C176.391 38.1794 176.427 37.9696 176.419 37.7592C176.444 37.4809 176.372 37.2027 176.216 36.9702C176.11 36.8724 175.984 36.7992 175.846 36.7559C175.709 36.7126 175.563 36.7003 175.42 36.72H175.032V38.7889ZM180.126 42.3396V36.1041H181.485C181.865 36.085 182.245 36.1577 182.591 36.3158C182.859 36.4471 183.067 36.6739 183.173 36.9509C183.3 37.2859 183.359 37.6422 183.348 37.9998V40.2996C183.357 40.679 183.297 41.057 183.173 41.4158C183.068 41.7022 182.87 41.9459 182.61 42.1087C182.285 42.278 181.92 42.3577 181.553 42.3396H180.126ZM180.999 41.7141H181.494C181.736 41.7396 181.978 41.6744 182.174 41.5313C182.32 41.3884 182.407 41.196 182.416 40.9924C182.449 40.7082 182.466 40.4222 182.465 40.136V38.1056C182.469 37.8446 182.45 37.5837 182.406 37.3262C182.375 37.1501 182.278 36.992 182.135 36.8836C181.931 36.7815 181.703 36.735 181.475 36.7489H180.999V41.7141ZM189.868 42.3396V36.1041H191.237C191.617 36.085 191.997 36.1577 192.343 36.3158C192.611 36.4471 192.819 36.6739 192.925 36.9509C193.052 37.2859 193.111 37.6422 193.1 37.9998V40.2996C193.109 40.679 193.049 41.057 192.925 41.4158C192.816 41.7029 192.615 41.9464 192.353 42.1087C192.03 42.2767 191.668 42.3564 191.305 42.3396H189.868ZM190.751 41.7141H191.246C191.487 41.7335 191.728 41.6688 191.926 41.5313C192.068 41.3859 192.154 41.1949 192.168 40.9924C192.185 40.7072 192.185 40.4212 192.168 40.136V38.1056C192.175 37.8441 192.152 37.5827 192.1 37.3262C192.088 37.2378 192.058 37.1528 192.011 37.0766C191.964 37.0004 191.902 36.9347 191.829 36.8836C191.625 36.7802 191.397 36.7336 191.169 36.7489H190.703L190.751 41.7141ZM195.953 42.3396V36.1041H196.816V42.3396H195.953ZM201.251 42.407C200.934 42.4182 200.62 42.3379 200.348 42.176C200.103 42.0231 199.913 41.7975 199.805 41.5313C199.668 41.228 199.592 40.9011 199.582 40.569L200.358 40.3573C200.374 40.575 200.41 40.7908 200.465 41.0021C200.509 41.1924 200.603 41.3681 200.736 41.5121C200.803 41.5784 200.884 41.6299 200.973 41.663C201.061 41.6962 201.156 41.7104 201.251 41.7045C201.345 41.711 201.44 41.6971 201.529 41.6639C201.618 41.6307 201.698 41.5789 201.765 41.5121C201.89 41.361 201.953 41.1683 201.94 40.9732C201.955 40.7302 201.887 40.4891 201.746 40.29C201.603 40.1004 201.44 39.9263 201.26 39.7704L200.203 38.8081C200.012 38.6456 199.856 38.4457 199.747 38.2211C199.643 37.9712 199.593 37.7023 199.601 37.4321C199.587 37.2362 199.615 37.0395 199.683 36.8553C199.752 36.671 199.86 36.5035 199.999 36.364C200.145 36.234 200.315 36.1339 200.5 36.0695C200.685 36.0051 200.88 35.9776 201.076 35.9887C201.297 35.9839 201.517 36.0164 201.726 36.0849C201.907 36.1436 202.071 36.2461 202.202 36.3832C202.339 36.5286 202.442 36.7029 202.502 36.8932C202.585 37.1195 202.638 37.3557 202.658 37.5956L201.911 37.7977C201.899 37.6094 201.869 37.4226 201.823 37.2396C201.783 37.0768 201.695 36.9295 201.571 36.8162C201.431 36.7047 201.255 36.6497 201.076 36.6623C200.888 36.651 200.704 36.7132 200.562 36.8355C200.499 36.9043 200.452 36.985 200.422 37.0727C200.392 37.1603 200.38 37.2531 200.387 37.3455C200.381 37.507 200.411 37.6679 200.474 37.817C200.563 37.9565 200.67 38.0829 200.795 38.1923L201.862 39.1545C202.107 39.3703 202.319 39.6198 202.493 39.8955C202.667 40.1869 202.761 40.5188 202.764 40.8577C202.771 41.1404 202.7 41.4196 202.561 41.666C202.439 41.8831 202.252 42.0578 202.027 42.1664C201.8 42.3112 201.539 42.3942 201.27 42.407H201.251ZM206.102 42.3396V36.7489H205.035V36.1041H208.014V36.7489H206.976V42.3396H206.102ZM210.556 42.3396V36.1041H211.828C212.181 36.0909 212.534 36.1464 212.866 36.2677C213.125 36.3647 213.339 36.5531 213.467 36.797C213.616 37.0957 213.686 37.4266 213.671 37.7592C213.672 37.9797 213.646 38.1994 213.594 38.4136C213.547 38.5967 213.461 38.7675 213.341 38.914C213.221 39.0506 213.068 39.1535 212.895 39.2123L213.788 42.3396H212.943L212.119 39.4528H211.43V42.3396H210.556ZM211.43 38.7889H211.769C211.974 38.797 212.179 38.7643 212.371 38.6926C212.525 38.6358 212.65 38.5219 212.72 38.3751C212.799 38.1794 212.835 37.9696 212.827 37.7592C212.851 37.4809 212.779 37.2027 212.623 36.9702C212.518 36.8724 212.392 36.7992 212.254 36.7559C212.116 36.7126 211.971 36.7003 211.828 36.72H211.43V38.7889ZM216.573 42.3396V36.1041H217.436V42.3396H216.573ZM221.968 42.407C221.597 42.4266 221.23 42.3289 220.92 42.1279C220.674 41.9386 220.497 41.6751 220.415 41.3773C220.314 41.0402 220.265 40.6898 220.27 40.3381V38.1345C220.264 37.7606 220.313 37.3878 220.415 37.0279C220.497 36.7382 220.675 36.4841 220.92 36.3062C221.235 36.1167 221.6 36.0261 221.968 36.0464C222.305 36.0223 222.642 36.0959 222.938 36.2581C223.168 36.4025 223.342 36.6194 223.433 36.874C223.545 37.1822 223.598 37.5087 223.588 37.8362V38.3366H222.754V37.9036C222.77 37.7018 222.77 37.4991 222.754 37.2973C222.747 37.1412 222.681 36.9933 222.569 36.8836C222.497 36.8238 222.413 36.7793 222.323 36.7529C222.233 36.7264 222.139 36.7185 222.045 36.7296C221.85 36.7151 221.656 36.7734 221.502 36.8932C221.382 37.0177 221.305 37.1756 221.279 37.3455C221.262 37.5665 221.262 37.7884 221.279 38.0094V40.4824C221.274 40.7348 221.3 40.9869 221.356 41.233C221.399 41.3864 221.491 41.5217 221.618 41.6179C221.762 41.7011 221.927 41.7412 222.094 41.7334C222.279 41.75 222.463 41.6948 222.608 41.5794C222.72 41.4571 222.788 41.3015 222.802 41.1368C222.818 40.9222 222.818 40.7067 222.802 40.4921V40.0302H223.637V40.4921C223.635 40.8174 223.59 41.1411 223.501 41.4543C223.412 41.7226 223.243 41.9577 223.016 42.1279C222.7 42.3426 222.319 42.4413 221.939 42.407H221.968ZM227.013 42.3396V36.7489H225.956V36.1041H228.925V36.7489H227.896V42.3396H227.013ZM236.717 42.407C236.401 42.4168 236.09 42.322 235.834 42.1375C235.603 41.9392 235.428 41.6835 235.329 41.3966C235.226 41.0597 235.174 40.7095 235.174 40.3573V38.2596C235.17 37.8826 235.219 37.5069 235.32 37.1434C235.397 36.837 235.562 36.5595 235.795 36.3447C236.053 36.1329 236.383 36.0262 236.717 36.0464C237.002 36.0369 237.285 36.0963 237.542 36.2196C237.766 36.3359 237.949 36.5172 238.066 36.7392C238.197 36.9955 238.263 37.2794 238.26 37.5668H237.416C237.429 37.3272 237.379 37.0884 237.27 36.874C237.206 36.7883 237.12 36.7209 237.021 36.6787C236.922 36.6364 236.814 36.6208 236.707 36.6334C236.563 36.6324 236.423 36.6876 236.319 36.7873C236.198 36.9019 236.114 37.0491 236.077 37.2107C236.021 37.4603 235.995 37.7154 235.999 37.9709V38.9332C236.084 38.8 236.205 38.6933 236.348 38.6253C236.523 38.54 236.716 38.4971 236.911 38.5002C237.201 38.4824 237.489 38.5639 237.726 38.7311C237.934 38.8873 238.084 39.1072 238.153 39.3566C238.237 39.6704 238.276 39.9943 238.27 40.3189C238.275 40.6651 238.223 41.0098 238.114 41.3389C238.03 41.6302 237.857 41.8888 237.619 42.0798C237.354 42.2954 237.021 42.4112 236.678 42.407H236.717ZM236.717 41.7238C236.796 41.7285 236.876 41.7174 236.951 41.6909C237.026 41.6645 237.095 41.6233 237.154 41.5698C237.263 41.4495 237.34 41.3039 237.377 41.1464C237.42 40.9569 237.443 40.7634 237.445 40.569C237.46 40.3416 237.46 40.1133 237.445 39.8858C237.438 39.704 237.373 39.5289 237.26 39.3855C237.197 39.3166 237.119 39.2633 237.031 39.2299C236.943 39.1964 236.849 39.1838 236.756 39.193C236.651 39.19 236.548 39.2132 236.455 39.2604C236.364 39.2944 236.282 39.3469 236.212 39.4143C236.148 39.474 236.093 39.542 236.047 39.6164V40.5787C236.046 40.7758 236.066 40.9725 236.106 41.1656C236.147 41.3264 236.227 41.4748 236.339 41.5987C236.432 41.6856 236.551 41.7397 236.678 41.7526L236.717 41.7238Z" fill="white"></path>
<path d="M243.073 39.934H269.757M64.0431 39.934H90.7278H64.0431Z" stroke="#E12B3A"></path>
<path d="M80.704 9.70926H78.5208L74.2124 23.0366L69.904 9.70926H67.7305H66.11H63.8005V28.8679H68.4582V24.3934L68.0022 15.2327L72.6695 28.8679H75.7553L80.4226 15.2327L79.9666 24.3934V28.8679H84.6437V9.70926H82.3148H80.704Z" fill="white"></path>
<path d="M92.5617 9.70926H89.5633V28.8679H92.5617H94.221H102.857V25.3172H94.221V20.7464H101.537V17.3208H94.221V13.2793H102.896V9.70926H94.221H92.5617Z" fill="white"></path>
<path d="M119.654 20.0728C120.279 19.5875 120.779 18.9606 121.109 18.2445C121.476 17.3773 121.652 16.4422 121.624 15.5021C121.665 14.3731 121.349 13.2597 120.721 12.317C120.091 11.4382 119.208 10.7677 118.189 10.3924C116.948 9.93198 115.631 9.70992 114.307 9.7381H106.7V28.8968H111.357V22.1609H113.861L117.277 28.8968H122.264V28.6947L118.227 20.9485C118.733 20.708 119.211 20.4145 119.654 20.0728ZM111.367 13.2696H114.278C114.779 13.2543 115.276 13.3635 115.724 13.5872C116.116 13.8099 116.431 14.1455 116.626 14.5494C116.825 14.9951 116.927 15.4768 116.927 15.9639C116.927 16.4511 116.825 16.9328 116.626 17.3785C116.429 17.7579 116.122 18.0697 115.743 18.2734C115.287 18.4923 114.785 18.598 114.278 18.5813H111.367V13.2696Z" fill="white"></path>
<path d="M131.327 9.70926H126.679V28.8679H131.327V9.70926Z" fill="white"></path>
<path d="M140.924 16.1468C141.023 15.5202 141.237 14.9169 141.555 14.3666C141.814 13.9541 142.183 13.621 142.622 13.4043C143.088 13.1826 143.6 13.0737 144.116 13.0868C144.784 13.0638 145.447 13.1921 146.057 13.4621C146.561 13.6653 146.974 14.0409 147.222 14.5206C147.469 15.0919 147.595 15.7078 147.59 16.3296H152.238C152.147 15.077 151.758 13.8636 151.103 12.7885C150.459 11.7324 149.527 10.8784 148.415 10.3251C147.088 9.69265 145.627 9.38574 144.155 9.43019C143.013 9.41802 141.881 9.63741 140.827 10.0749C139.828 10.4877 138.935 11.1193 138.217 11.9224C137.474 12.7881 136.913 13.7926 136.567 14.8766C136.174 16.1219 135.981 17.4208 135.995 18.7257V19.813C135.981 21.1157 136.164 22.4131 136.538 23.6621C136.878 24.72 137.426 25.7009 138.149 26.5489C138.853 27.3535 139.732 27.9886 140.72 28.406C141.819 28.8522 142.997 29.0716 144.184 29.0508C145.61 29.0872 147.024 28.7975 148.318 28.204C149.445 27.6826 150.403 26.8594 151.084 25.8272C151.758 24.7711 152.133 23.5547 152.17 22.3053H147.522C147.528 22.92 147.385 23.5272 147.105 24.0758C146.845 24.5287 146.448 24.8889 145.97 25.1055C145.405 25.3408 144.796 25.4524 144.184 25.4326C143.627 25.449 143.073 25.3405 142.564 25.1151C142.121 24.8861 141.754 24.5353 141.506 24.1047C141.197 23.5598 140.993 22.9627 140.905 22.3438C140.769 21.4812 140.708 20.6089 140.72 19.736V18.7449C140.708 17.8745 140.777 17.0049 140.924 16.1468Z" fill="white"></path>
<path d="M166.755 9.70926L162.592 15.7234L160.971 18.1579V9.70926H156.314V28.8679H160.971V23.8161L162.873 21.7472L166.988 28.8679H172.499L165.978 18.1772L172.499 9.70926H166.755Z" fill="white"></path>
<path d="M188.995 9.70926H184.337V28.8679H187.336H188.995H197.098V25.3172H188.995V9.70926Z" fill="white"></path>
<path d="M204.006 9.70926H201.008V28.8679H204.006H205.656H214.302V25.3172H205.656V20.7464H212.973V17.3208H205.656V13.2793H214.341V9.70926H205.656H204.006Z" fill="white"></path>
<path d="M233.107 21.7279L230.41 9.70926H228.75H228.129H226.451L223.802 21.6991L221.58 9.70926H216.97L221.065 28.8679H223.365H223.996H225.898L228.43 17.9462L231.021 28.8679H232.913H233.554H235.834L239.929 9.70926H235.329L233.107 21.7279Z" fill="white"></path>
<path d="M248.662 9.70926H244.014V28.8679H248.662V9.70926Z" fill="white"></path>
<path d="M265.362 9.70926V21.6317L258.53 9.70926H253.873V28.8679H258.53V16.9455L265.362 28.8679H270V9.70926H265.362Z" fill="white"></path>
</g>
<defs>
<clipPath id="clip0_10_2008">
<rect width="270" height="51" fill="white"></rect>
</clipPath>
</defs>
</svg>
