<svg width="53" height="125" viewBox="0 0 53 125" fill="none" xmlns="http://www.w3.org/2000/svg">
<path d="M12.5414 101.274L15.0015 110.562L25.0714 110.332L16.5188 115.217L20.2778 125L12.5414 118.103L4.79357 125L8.55255 115.217L0 110.332L10.0699 110.562L12.5414 101.274Z" fill="#16839B" fill-opacity="0.5"/>
<path d="M39.7394 68.8569L42.1994 78.1336L52.2809 77.9152L43.7283 82.8007L47.4873 92.5717L39.7394 85.6745L31.9916 92.5717L35.7506 82.8007L27.198 77.9152L37.2794 78.1336L39.7394 68.8569Z" fill="#16839B" fill-opacity="0.5"/>
<path d="M12.5414 32.4168L15.0015 41.705L25.0714 41.4751L16.5188 46.3606L20.2778 56.1431L12.5414 49.2459L4.79357 56.1431L8.55255 46.3606L0 41.4751L10.0699 41.705L12.5414 32.4168Z" fill="#16839B" fill-opacity="0.5"/>
<path d="M39.7394 0L42.1994 9.27671L52.2809 9.0583L43.7283 13.9438L47.4873 23.7148L39.7394 16.8176L31.9916 23.7148L35.7506 13.9438L27.198 9.0583L37.2794 9.27671L39.7394 0Z" fill="#16839B" fill-opacity="0.5"/>
</svg>
